<?xml version="1.0" encoding="UTF-8" standalone="no"?>
<!-- Created with Inkscape (http://www.inkscape.org/) -->

<svg
   xmlns:dc="http://purl.org/dc/elements/1.1/"
   xmlns:cc="http://creativecommons.org/ns#"
   xmlns:rdf="http://www.w3.org/1999/02/22-rdf-syntax-ns#"
   xmlns:svg="http://www.w3.org/2000/svg"
   xmlns="http://www.w3.org/2000/svg"
   xmlns:sodipodi="http://sodipodi.sourceforge.net/DTD/sodipodi-0.dtd"
   xmlns:inkscape="http://www.inkscape.org/namespaces/inkscape"
   width="274.76056mm"
   height="47.939594mm"
   viewBox="0 0 274.76056 47.939594"
   version="1.1"
   id="svg1771"
   inkscape:version="0.92.4 5da689c313, 2019-01-14"
   sodipodi:docname="logo.svg">
  <defs
     id="defs1765" />
  <sodipodi:namedview
     id="base"
     pagecolor="#ffffff"
     bordercolor="#666666"
     borderopacity="1.0"
     inkscape:pageopacity="0.0"
     inkscape:pageshadow="2"
     inkscape:zoom="1.4"
     inkscape:cx="310.91213"
     inkscape:cy="0.23660431"
     inkscape:document-units="mm"
     inkscape:current-layer="layer1"
     showgrid="false"
     fit-margin-top="0"
     fit-margin-left="0"
     fit-margin-right="0"
     fit-margin-bottom="0"
     inkscape:window-width="3840"
     inkscape:window-height="2135"
     inkscape:window-x="1920"
     inkscape:window-y="25"
     inkscape:window-maximized="0" />
  <metadata
     id="metadata1768">
    <rdf:RDF>
      <cc:Work
         rdf:about="">
        <dc:format>image/svg+xml</dc:format>
        <dc:type
           rdf:resource="http://purl.org/dc/dcmitype/StillImage" />
        <dc:title></dc:title>
      </cc:Work>
    </rdf:RDF>
  </metadata>
  <g
     inkscape:label="Layer 1"
     inkscape:groupmode="layer"
     id="layer1"
     transform="translate(73.880281,-42.464724)">
    <g
       id="g968"
       inkscape:export-xdpi="93.129997"
       inkscape:export-ydpi="93.129997"
       transform="matrix(3,0,0,3,-127,-132.86905)">
      <g
         id="text12"
         style="font-style:normal;font-weight:normal;font-size:10.58333302px;line-height:1.25;font-family:sans-serif;letter-spacing:0px;word-spacing:0px;fill:#000000;fill-opacity:1;stroke:none;stroke-width:0.26458332"
         aria-label="martinreiche.dev">
        <path
           id="path849"
           style="fill:#4d4d4d"
           d="m 33.329074,62.671 0.02067,0.909506 q 0.310059,-0.50643 0.775147,-0.759644 0.465087,-0.253215 1.033528,-0.253215 1.322917,0 1.679484,1.085206 0.299723,-0.521932 0.800985,-0.800985 0.501261,-0.284221 1.105875,-0.284221 1.79834,0 1.834514,1.963705 V 68.26239 H 39.95916 v -3.684529 q -0.0052,-0.749309 -0.325562,-1.111044 -0.315226,-0.361735 -1.033529,-0.361735 -0.666625,0.01034 -1.126546,0.434082 -0.45992,0.418579 -0.511596,1.023194 v 3.700032 h -0.620118 v -3.731038 q -0.0052,-0.718303 -0.341064,-1.069702 -0.330729,-0.356568 -1.023193,-0.356568 -0.583944,0 -1.002523,0.335897 -0.418579,0.330729 -0.620117,0.98702 V 68.26239 H 32.734795 V 62.671 Z"
           inkscape:connector-curvature="0" />
        <path
           id="path851"
           style="fill:#4d4d4d"
           d="m 45.67974,68.26239 q -0.09302,-0.26355 -0.118856,-0.780314 -0.325561,0.423747 -0.83199,0.656291 -0.501262,0.227376 -1.064535,0.227376 -0.806152,0 -1.307413,-0.449585 -0.496094,-0.449585 -0.496094,-1.136881 0,-0.816488 0.676961,-1.291911 0.682129,-0.475423 1.896525,-0.475423 h 1.121379 v -0.63562 q 0,-0.599447 -0.372071,-0.940511 -0.366902,-0.346233 -1.074869,-0.346233 -0.645956,0 -1.069702,0.33073 -0.423747,0.330729 -0.423747,0.795817 l -0.620117,-0.0052 q 0,-0.666626 0.620117,-1.152384 0.620117,-0.490927 1.524455,-0.490927 0.935343,0 1.472778,0.470256 0.542602,0.465088 0.558105,1.302246 v 2.645833 q 0,0.81132 0.170532,1.214396 v 0.06201 z m -1.943034,-0.444417 q 0.620118,0 1.105876,-0.299723 0.490926,-0.299724 0.713135,-0.800985 v -1.229899 h -1.105876 q -0.925008,0.01034 -1.44694,0.341064 -0.521932,0.325562 -0.521932,0.89917 0,0.470256 0.346232,0.780314 0.3514,0.310059 0.909505,0.310059 z"
           inkscape:connector-curvature="0" />
        <path
           id="path853"
           style="fill:#4d4d4d"
           d="m 50.397798,63.1981 q -0.196371,-0.03617 -0.418579,-0.03617 -0.578776,0 -0.981852,0.325562 -0.397909,0.320394 -0.568441,0.935343 v 3.839559 h -0.61495 V 62.671 h 0.604615 l 0.01033,0.888835 q 0.490926,-0.992188 1.576131,-0.992188 0.258382,0 0.408244,0.06718 z"
           inkscape:connector-curvature="0" />
        <path
           id="path855"
           style="fill:#4d4d4d"
           d="M 52.599215,61.239563 V 62.671 h 1.157552 v 0.506429 H 52.599215 V 66.9033 q 0,0.465088 0.165364,0.692464 0.170532,0.227376 0.563273,0.227376 0.155029,0 0.501262,-0.05168 l 0.02584,0.506429 q -0.242879,0.08785 -0.661459,0.08785 -0.63562,0 -0.925008,-0.366903 -0.289388,-0.37207 -0.289388,-1.090372 V 63.177429 H 50.950736 V 62.671 h 1.028361 v -1.431437 z"
           inkscape:connector-curvature="0" />
        <path
           id="path857"
           style="fill:#4d4d4d"
           d="M 55.741142,68.26239 H 55.121024 V 62.671 h 0.620118 z m -0.728638,-7.208862 q 0,-0.1757 0.113688,-0.294556 0.113688,-0.124023 0.310059,-0.124023 0.19637,0 0.310058,0.124023 0.118856,0.118856 0.118856,0.294556 0,0.1757 -0.118856,0.294556 -0.113688,0.118855 -0.310058,0.118855 -0.196371,0 -0.310059,-0.118855 -0.113688,-0.118856 -0.113688,-0.294556 z"
           inkscape:connector-curvature="0" />
        <path
           id="path859"
           style="fill:#4d4d4d"
           d="m 58.014904,62.671 0.02067,0.956014 q 0.315226,-0.516764 0.785481,-0.785481 0.470256,-0.273886 1.038697,-0.273886 0.899169,0 1.338419,0.506429 0.43925,0.50643 0.444417,1.519288 V 68.26239 H 61.02764 v -3.674194 q -0.0052,-0.749308 -0.320394,-1.116211 -0.310059,-0.366903 -0.997355,-0.366903 -0.573608,0 -1.018026,0.361735 -0.439249,0.356568 -0.651123,0.96635 V 68.26239 H 57.425793 V 62.671 Z"
           inkscape:connector-curvature="0" />
        <path
           id="path861"
           style="font-style:normal;font-variant:normal;font-weight:300;font-stretch:normal;font-family:Roboto;-inkscape-font-specification:'Roboto Light';fill:#008090;fill-opacity:1"
           d="m 65.818046,63.1981 q -0.196371,-0.03617 -0.418579,-0.03617 -0.578776,0 -0.981852,0.325562 -0.397909,0.320394 -0.568441,0.935343 v 3.839559 h -0.61495 V 62.671 h 0.604615 l 0.01033,0.888835 q 0.490926,-0.992188 1.576131,-0.992188 0.258382,0 0.408244,0.06718 z"
           inkscape:connector-curvature="0" />
        <path
           id="path863"
           style="font-style:normal;font-variant:normal;font-weight:300;font-stretch:normal;font-family:Roboto;-inkscape-font-specification:'Roboto Light';fill:#008090;fill-opacity:1"
           d="m 68.954805,68.365743 q -0.713135,0 -1.291911,-0.3514 -0.573609,-0.351399 -0.894002,-0.976684 -0.320394,-0.630453 -0.320394,-1.410767 v -0.222208 q 0,-0.806153 0.310058,-1.452108 0.315227,-0.645956 0.873332,-1.012858 0.558105,-0.372071 1.209229,-0.372071 1.018025,0 1.612304,0.697632 0.599447,0.692464 0.599447,1.896525 v 0.346232 h -3.989421 v 0.118856 q 0,0.950846 0.542603,1.586467 0.54777,0.630452 1.374593,0.630452 0.496094,0 0.873332,-0.180867 0.382405,-0.180868 0.692464,-0.578776 l 0.387573,0.294555 q -0.682129,0.98702 -1.979207,0.98702 z m -0.113688,-5.270996 q -0.697632,0 -1.178223,0.511597 -0.475423,0.511596 -0.578776,1.374593 h 3.3538 v -0.06718 q -0.02584,-0.806152 -0.45992,-1.312581 -0.434082,-0.506429 -1.136881,-0.506429 z"
           inkscape:connector-curvature="0" />
        <path
           id="path865"
           style="font-style:normal;font-variant:normal;font-weight:300;font-stretch:normal;font-family:Roboto;-inkscape-font-specification:'Roboto Light';fill:#008090;fill-opacity:1"
           d="M 72.959729,68.26239 H 72.339612 V 62.671 h 0.620117 z m -0.728637,-7.208862 q 0,-0.1757 0.113688,-0.294556 0.113688,-0.124023 0.310059,-0.124023 0.19637,0 0.310058,0.124023 0.118856,0.118856 0.118856,0.294556 0,0.1757 -0.118856,0.294556 -0.113688,0.118855 -0.310058,0.118855 -0.196371,0 -0.310059,-0.118855 -0.113688,-0.118856 -0.113688,-0.294556 z"
           inkscape:connector-curvature="0" />
        <path
           id="path867"
           style="font-style:normal;font-variant:normal;font-weight:300;font-stretch:normal;font-family:Roboto;-inkscape-font-specification:'Roboto Light';fill:#008090;fill-opacity:1"
           d="m 76.711436,67.843811 q 0.645955,0 1.080037,-0.361735 0.43925,-0.366903 0.475423,-0.945679 h 0.594279 q -0.02584,0.511597 -0.320393,0.935344 -0.294556,0.418579 -0.785482,0.65629 -0.485759,0.237712 -1.043864,0.237712 -1.100708,0 -1.746663,-0.764811 -0.640788,-0.764811 -0.640788,-2.056722 v -0.186035 q 0,-0.826823 0.289388,-1.462443 0.289388,-0.63562 0.826823,-0.981852 0.542602,-0.346233 1.266072,-0.346233 0.919841,0 1.51412,0.547771 0.599446,0.54777 0.640787,1.441772 h -0.594279 q -0.04134,-0.656291 -0.475423,-1.059367 -0.428914,-0.403076 -1.085205,-0.403076 -0.837158,0 -1.302246,0.604614 -0.45992,0.604615 -0.45992,1.694987 v 0.180868 q 0,1.069702 0.45992,1.669148 0.465088,0.599447 1.307414,0.599447 z"
           inkscape:connector-curvature="0" />
        <path
           id="path869"
           style="font-style:normal;font-variant:normal;font-weight:300;font-stretch:normal;font-family:Roboto;-inkscape-font-specification:'Roboto Light';fill:#008090;fill-opacity:1"
           d="m 80.716359,63.616679 q 0.304891,-0.501261 0.780315,-0.775146 0.475423,-0.273886 1.038696,-0.273886 0.89917,0 1.338419,0.506429 0.43925,0.50643 0.444418,1.519288 v 3.669026 h -0.61495 v -3.674194 q -0.0052,-0.749308 -0.320394,-1.116211 -0.310058,-0.366903 -0.997355,-0.366903 -0.573608,0 -1.018026,0.361735 -0.439249,0.356568 -0.651123,0.96635 V 68.26239 H 80.10141 v -7.9375 h 0.614949 z"
           inkscape:connector-curvature="0" />
        <path
           id="path871"
           style="font-style:normal;font-variant:normal;font-weight:300;font-stretch:normal;font-family:Roboto;-inkscape-font-specification:'Roboto Light';fill:#008090;fill-opacity:1"
           d="m 88.075082,68.365743 q -0.713135,0 -1.291911,-0.3514 -0.573608,-0.351399 -0.894002,-0.976684 -0.320394,-0.630453 -0.320394,-1.410767 v -0.222208 q 0,-0.806153 0.310059,-1.452108 0.315226,-0.645956 0.873331,-1.012858 0.558106,-0.372071 1.209229,-0.372071 1.018026,0 1.612305,0.697632 0.599446,0.692464 0.599446,1.896525 v 0.346232 h -3.98942 v 0.118856 q 0,0.950846 0.542602,1.586467 0.54777,0.630452 1.374593,0.630452 0.496094,0 0.873332,-0.180867 0.382406,-0.180868 0.692464,-0.578776 l 0.387573,0.294555 q -0.682129,0.98702 -1.979207,0.98702 z m -0.113688,-5.270996 q -0.697632,0 -1.178223,0.511597 -0.475423,0.511596 -0.578776,1.374593 h 3.353801 v -0.06718 q -0.02584,-0.806152 -0.459921,-1.312581 -0.434082,-0.506429 -1.136881,-0.506429 z"
           inkscape:connector-curvature="0" />
        <path
           id="path873"
           style="fill:#4d4d4d"
           d="m 91.330699,67.89032 q 0,-0.180868 0.113688,-0.304891 0.118856,-0.129191 0.325561,-0.129191 0.206706,0 0.325562,0.129191 0.118856,0.124023 0.118856,0.304891 0,0.180867 -0.118856,0.299723 -0.118856,0.113688 -0.325562,0.113688 -0.206705,0 -0.325561,-0.113688 -0.113688,-0.118856 -0.113688,-0.299723 z"
           inkscape:connector-curvature="0" />
        <path
           id="path875"
           style="fill:#4d4d4d"
           d="m 93.661304,65.415019 q 0,-1.302246 0.578776,-2.072225 0.583944,-0.775147 1.581299,-0.775147 1.131714,0 1.725993,0.894003 v -3.13676 h 0.61495 v 7.9375 h -0.578776 l -0.02584,-0.74414 q -0.594279,0.847493 -1.746663,0.847493 -0.966349,0 -1.560628,-0.775146 -0.589112,-0.780315 -0.589112,-2.103231 z m 0.625285,0.10852 q 0,1.069702 0.428915,1.68982 0.428914,0.614949 1.209228,0.614949 1.142049,0 1.62264,-1.00769 v -2.625163 q -0.480591,-1.090373 -1.612305,-1.090373 -0.780314,0 -1.214396,0.61495 -0.434082,0.609782 -0.434082,1.803507 z"
           inkscape:connector-curvature="0" />
        <path
           id="path877"
           style="fill:#4d4d4d"
           d="m 101.96571,68.365743 q -0.71313,0 -1.29191,-0.3514 -0.57361,-0.351399 -0.894002,-0.976684 -0.320394,-0.630453 -0.320394,-1.410767 v -0.222208 q 0,-0.806153 0.310059,-1.452108 0.315227,-0.645956 0.873327,-1.012858 0.55811,-0.372071 1.20923,-0.372071 1.01803,0 1.61231,0.697632 0.59944,0.692464 0.59944,1.896525 v 0.346232 h -3.98942 v 0.118856 q 0,0.950846 0.54261,1.586467 0.54777,0.630452 1.37459,0.630452 0.49609,0 0.87333,-0.180867 0.38241,-0.180868 0.69246,-0.578776 l 0.38758,0.294555 q -0.68213,0.98702 -1.97921,0.98702 z m -0.11369,-5.270996 q -0.69763,0 -1.17822,0.511597 -0.47542,0.511596 -0.57878,1.374593 h 3.3538 v -0.06718 q -0.0258,-0.806152 -0.45992,-1.312581 -0.43408,-0.506429 -1.13688,-0.506429 z"
           inkscape:connector-curvature="0" />
        <path
           id="path879"
           style="fill:#4d4d4d"
           d="M 106.95765,67.409729 108.65781,62.671 h 0.63562 l -2.08773,5.59139 h -0.50126 L 104.60637,62.671 h 0.63562 z"
           inkscape:connector-curvature="0" />
      </g>
      <g
         id="g6926"
         transform="matrix(0.06362941,0,0,-0.06362942,26.992565,68.399192)">
        <g
           id="g4731"
           transform="translate(-22.577196,3.0627141)">
          <path
             transform="translate(-28.601484,-63.908204)"
             d="m 0,0 c -0.863,0 -1.727,0.224 -2.5,0.67 l -89.76,51.824 c -1.547,0.894 -2.5,2.544 -2.5,4.33 v 103.645 c 0,1.786 0.953,3.437 2.5,4.33 l 89.76,51.823 c 0.773,0.447 1.637,0.67 2.5,0.67 0.863,0 1.727,-0.223 2.5,-0.67 l 89.762,-51.823 c 1.547,-0.893 2.5,-2.544 2.5,-4.33 V 56.824 c 0,-1.786 -0.953,-3.436 -2.5,-4.33 L 2.5,0.67 C 1.727,0.224 0.863,0 0,0"
             style="fill:#008090;fill-opacity:1;fill-rule:nonzero;stroke:none"
             id="path6908"
             inkscape:connector-curvature="0" />
          <path
             d="m 0.20460263,-1.9697945 c -1.53699993,0 -2.95599993,0.8299999 -3.70999993,2.17099966 L -28.510397,44.682211 -53.516397,0.20120516 c -0.754,-1.34099976 -2.172,-2.17099966 -3.711,-2.17099966 h -18.37 c -1.515,0 -2.917,0.8059999 -3.678,2.11599966 -0.762,1.30999984 -0.771,2.92600024 -0.022,4.24400034 l 36.908,64.9480055 -14.103,25.181 c -0.739,1.319 -0.723,2.929 0.042,4.233 0.762,1.302999 2.161,2.103979 3.672,2.103979 h 18.37 c 1.539,0 2.958,-0.83098 3.711,-2.171979 l 52.984,-94.3120055 c 0.74,-1.3190001 0.727,-2.9310005 -0.037,-4.23500034 -0.764,-1.30399976 -2.162,-2.10699966 -3.674,-2.10699966 z"
             style="fill:#4d4d4d;fill-opacity:1;fill-rule:nonzero;stroke:none"
             id="path6910"
             inkscape:connector-curvature="0" />
        </g>
      </g>
      <g
         id="text4725"
         style="font-style:normal;font-weight:normal;font-size:10.58333302px;line-height:1.25;font-family:sans-serif;letter-spacing:0px;word-spacing:0px;fill:#000000;fill-opacity:1;stroke:none;stroke-width:0.26458332"
         aria-label="Full Stack Web Developer">
        <path
           id="path882"
           style="font-style:normal;font-variant:normal;font-weight:300;font-stretch:normal;font-size:4.23333311px;font-family:Roboto;-inkscape-font-specification:'Roboto Light';fill:#4d4d4d;stroke-width:0.26458332"
           d="m 59.135244,72.158961 h -1.403531 v 1.405599 h -0.254248 v -3.009635 h 1.864485 v 0.217041 h -1.610237 v 1.169954 h 1.403531 z"
           inkscape:connector-curvature="0" />
        <path
           id="path884"
           style="font-style:normal;font-variant:normal;font-weight:300;font-stretch:normal;font-size:4.23333311px;font-family:Roboto;-inkscape-font-specification:'Roboto Light';fill:#4d4d4d;stroke-width:0.26458332"
           d="m 61.198168,73.281373 q -0.223243,0.324528 -0.713135,0.324528 -0.357601,0 -0.543636,-0.206706 -0.186035,-0.208772 -0.190169,-0.615983 v -1.455208 h 0.245979 v 1.424202 q 0,0.638721 0.516765,0.638721 0.537435,0 0.680061,-0.444417 v -1.618506 h 0.248047 v 2.236556 h -0.239778 z"
           inkscape:connector-curvature="0" />
        <path
           id="path886"
           style="font-style:normal;font-variant:normal;font-weight:300;font-stretch:normal;font-size:4.23333311px;font-family:Roboto;-inkscape-font-specification:'Roboto Light';fill:#4d4d4d;stroke-width:0.26458332"
           d="m 62.359854,73.56456 h -0.248047 v -3.175 h 0.248047 z"
           inkscape:connector-curvature="0" />
        <path
           id="path888"
           style="font-style:normal;font-variant:normal;font-weight:300;font-stretch:normal;font-size:4.23333311px;font-family:Roboto;-inkscape-font-specification:'Roboto Light';fill:#4d4d4d;stroke-width:0.26458332"
           d="m 63.3107,73.56456 h -0.248047 v -3.175 H 63.3107 Z"
           inkscape:connector-curvature="0" />
        <path
           id="path890"
           style="font-style:normal;font-variant:normal;font-weight:300;font-stretch:normal;font-size:4.23333311px;font-family:Roboto;-inkscape-font-specification:'Roboto Light';fill:#4d4d4d;stroke-width:0.26458332"
           d="m 66.779222,72.824553 q 0,-0.250113 -0.1757,-0.394807 -0.1757,-0.146762 -0.642855,-0.276986 -0.467155,-0.132292 -0.682129,-0.287321 -0.305924,-0.219108 -0.305924,-0.574642 0,-0.345199 0.283187,-0.560172 0.285254,-0.217041 0.727604,-0.217041 0.299723,0 0.535368,0.115755 0.237711,0.115755 0.367936,0.322461 0.130224,0.206705 0.130224,0.460953 h -0.256315 q 0,-0.307991 -0.21084,-0.494026 -0.210839,-0.188102 -0.566373,-0.188102 -0.345199,0 -0.549837,0.155029 -0.204639,0.152962 -0.204639,0.401009 0,0.229443 0.183968,0.374137 0.183968,0.144694 0.589111,0.256315 0.405144,0.109554 0.613916,0.229444 0.208773,0.117822 0.314193,0.283187 0.10542,0.165364 0.10542,0.390673 0,0.355534 -0.285254,0.570508 -0.283187,0.214974 -0.748275,0.214974 -0.318327,0 -0.584977,-0.113688 -0.264583,-0.113688 -0.403076,-0.318327 -0.136426,-0.204639 -0.136426,-0.469222 h 0.254248 q 0,0.318327 0.237712,0.502295 0.237711,0.183968 0.632519,0.183968 0.3514,0 0.564307,-0.155029 0.212907,-0.155029 0.212907,-0.411345 z"
           inkscape:connector-curvature="0" />
        <path
           id="path892"
           style="font-style:normal;font-variant:normal;font-weight:300;font-stretch:normal;font-size:4.23333311px;font-family:Roboto;-inkscape-font-specification:'Roboto Light';fill:#4d4d4d;stroke-width:0.26458332"
           d="m 67.907836,70.755429 v 0.572575 h 0.46302 v 0.202572 h -0.46302 v 1.490348 q 0,0.186035 0.06614,0.276986 0.06821,0.09095 0.22531,0.09095 0.06201,0 0.200504,-0.02067 l 0.01033,0.202571 q -0.09715,0.03514 -0.264583,0.03514 -0.254248,0 -0.370003,-0.146761 -0.115755,-0.148828 -0.115755,-0.436149 v -1.492415 h -0.411345 v -0.202572 h 0.411345 v -0.572575 z"
           inkscape:connector-curvature="0" />
        <path
           id="path894"
           style="font-style:normal;font-variant:normal;font-weight:300;font-stretch:normal;font-size:4.23333311px;font-family:Roboto;-inkscape-font-specification:'Roboto Light';fill:#4d4d4d;stroke-width:0.26458332"
           d="m 70.299421,73.56456 q -0.03721,-0.10542 -0.04754,-0.312126 -0.130224,0.169499 -0.332796,0.262517 -0.200504,0.09095 -0.425814,0.09095 -0.32246,0 -0.522965,-0.179834 -0.198437,-0.179834 -0.198437,-0.454752 0,-0.326596 0.270784,-0.516765 0.272852,-0.190169 0.75861,-0.190169 h 0.448551 v -0.254248 q 0,-0.239779 -0.148828,-0.376204 -0.146761,-0.138493 -0.429948,-0.138493 -0.258382,0 -0.42788,0.132291 -0.169499,0.132292 -0.169499,0.318327 l -0.248047,-0.0021 q 0,-0.26665 0.248047,-0.460954 0.248047,-0.19637 0.609782,-0.19637 0.374137,0 0.589111,0.188102 0.217041,0.186035 0.223242,0.520899 v 1.058333 q 0,0.324528 0.06821,0.485758 v 0.02481 z m -0.777214,-0.177767 q 0.248047,0 0.442351,-0.119889 0.19637,-0.11989 0.285253,-0.320394 v -0.49196 h -0.44235 q -0.370003,0.0041 -0.578776,0.136426 -0.208773,0.130225 -0.208773,0.359668 0,0.188102 0.138493,0.312126 0.14056,0.124023 0.363802,0.124023 z"
           inkscape:connector-curvature="0" />
        <path
           id="path896"
           style="font-style:normal;font-variant:normal;font-weight:300;font-stretch:normal;font-size:4.23333311px;font-family:Roboto;-inkscape-font-specification:'Roboto Light';fill:#4d4d4d;stroke-width:0.26458332"
           d="m 71.979938,73.397128 q 0.258382,0 0.432015,-0.144694 0.1757,-0.146761 0.190169,-0.378271 h 0.237712 q -0.01034,0.204638 -0.128158,0.374137 -0.117822,0.167432 -0.314193,0.262516 -0.194303,0.09508 -0.417545,0.09508 -0.440283,0 -0.698665,-0.305924 -0.256315,-0.305925 -0.256315,-0.822689 v -0.07441 q 0,-0.330729 0.115755,-0.584977 0.115755,-0.254248 0.330729,-0.392741 0.217041,-0.138493 0.506429,-0.138493 0.367936,0 0.605648,0.219108 0.239778,0.219108 0.256315,0.576709 h -0.237712 q -0.01654,-0.262516 -0.190169,-0.423747 -0.171566,-0.16123 -0.434082,-0.16123 -0.334863,0 -0.520899,0.241845 -0.183968,0.241846 -0.183968,0.677995 v 0.07235 q 0,0.427881 0.183968,0.66766 0.186036,0.239778 0.522966,0.239778 z"
           inkscape:connector-curvature="0" />
        <path
           id="path898"
           style="font-style:normal;font-variant:normal;font-weight:300;font-stretch:normal;font-size:4.23333311px;font-family:Roboto;-inkscape-font-specification:'Roboto Light';fill:#4d4d4d;stroke-width:0.26458332"
           d="m 73.867161,72.438014 -0.283186,0.272851 v 0.853695 h -0.248047 v -3.175 h 0.248047 v 2.031917 l 0.233577,-0.252181 0.855762,-0.841292 h 0.312125 l -0.948779,0.942578 1.031462,1.293978 h -0.29559 z"
           inkscape:connector-curvature="0" />
        <path
           id="path900"
           style="font-style:normal;font-variant:normal;font-weight:300;font-stretch:normal;font-size:4.23333311px;font-family:Roboto;-inkscape-font-specification:'Roboto Light';fill:#4d4d4d;stroke-width:0.26458332"
           d="m 77.058697,72.752206 0.09302,0.467155 0.113688,-0.446484 0.65319,-2.217952 h 0.229443 l 0.644922,2.217952 0.111621,0.450619 0.09922,-0.47129 0.543636,-2.197281 h 0.260449 l -0.771012,3.009635 h -0.243913 l -0.682129,-2.354378 -0.07648,-0.297656 -0.07441,0.297656 -0.698665,2.354378 h -0.243913 l -0.768945,-3.009635 h 0.260449 z"
           inkscape:connector-curvature="0" />
        <path
           id="path902"
           style="font-style:normal;font-variant:normal;font-weight:300;font-stretch:normal;font-size:4.23333311px;font-family:Roboto;-inkscape-font-specification:'Roboto Light';fill:#4d4d4d;stroke-width:0.26458332"
           d="m 81.105994,73.605901 q -0.285253,0 -0.516764,-0.14056 -0.229443,-0.14056 -0.357601,-0.390674 -0.128157,-0.252181 -0.128157,-0.564306 v -0.08888 q 0,-0.322461 0.124023,-0.580843 0.126091,-0.258382 0.349333,-0.405143 0.223242,-0.148828 0.483691,-0.148828 0.40721,0 0.644922,0.279053 0.239779,0.276985 0.239779,0.75861 v 0.138492 h -1.595768 v 0.04754 q 0,0.380338 0.217041,0.634586 0.219108,0.252181 0.549837,0.252181 0.198437,0 0.349332,-0.07235 0.152963,-0.07235 0.276986,-0.23151 l 0.155029,0.117822 q -0.272851,0.394808 -0.791683,0.394808 z m -0.04547,-2.108398 q -0.279052,0 -0.471289,0.204638 -0.190169,0.204639 -0.23151,0.549838 h 1.34152 v -0.02687 q -0.01033,-0.322461 -0.183968,-0.525033 -0.173633,-0.202571 -0.454753,-0.202571 z"
           inkscape:connector-curvature="0" />
        <path
           id="path904"
           style="font-style:normal;font-variant:normal;font-weight:300;font-stretch:normal;font-size:4.23333311px;font-family:Roboto;-inkscape-font-specification:'Roboto Light';fill:#4d4d4d;stroke-width:0.26458332"
           d="m 84.231386,72.46902 q 0,0.522965 -0.23151,0.830957 -0.23151,0.305924 -0.622184,0.305924 -0.467155,0 -0.706934,-0.347266 l -0.01034,0.305925 h -0.231511 v -3.175 h 0.24598 v 1.262972 q 0.235645,-0.365869 0.698666,-0.365869 0.396875,0 0.626318,0.303857 0.23151,0.301791 0.23151,0.841293 z m -0.248047,-0.04341 q 0,-0.44235 -0.171565,-0.682128 -0.171566,-0.241846 -0.483692,-0.241846 -0.237711,0 -0.403076,0.117822 -0.165364,0.115755 -0.250114,0.341065 v 1.008723 q 0.186035,0.42168 0.657324,0.42168 0.305925,0 0.477491,-0.241846 0.173632,-0.241845 0.173632,-0.72347 z"
           inkscape:connector-curvature="0" />
        <path
           id="path906"
           style="font-style:normal;font-variant:normal;font-weight:300;font-stretch:normal;font-size:4.23333311px;font-family:Roboto;-inkscape-font-specification:'Roboto Light';fill:#4d4d4d;stroke-width:0.26458332"
           d="m 85.870561,73.56456 v -3.009635 h 0.841293 q 0.370003,0 0.663525,0.169498 0.293522,0.167432 0.45682,0.481625 0.165364,0.314192 0.165364,0.715201 v 0.276986 q 0,0.403076 -0.163297,0.715202 -0.163298,0.312126 -0.460954,0.481624 -0.295589,0.169499 -0.680062,0.169499 z m 0.254248,-2.792594 v 2.57762 h 0.570508 q 0.475423,0 0.762744,-0.314193 0.287321,-0.316259 0.287321,-0.853694 v -0.264584 q 0,-0.518831 -0.283187,-0.830957 -0.283186,-0.312125 -0.746207,-0.314192 z"
           inkscape:connector-curvature="0" />
        <path
           id="path908"
           style="font-style:normal;font-variant:normal;font-weight:300;font-stretch:normal;font-size:4.23333311px;font-family:Roboto;-inkscape-font-specification:'Roboto Light';fill:#4d4d4d;stroke-width:0.26458332"
           d="m 89.448638,73.605901 q -0.285254,0 -0.516764,-0.14056 -0.229443,-0.14056 -0.357601,-0.390674 -0.128158,-0.252181 -0.128158,-0.564306 v -0.08888 q 0,-0.322461 0.124024,-0.580843 0.12609,-0.258382 0.349333,-0.405143 0.223242,-0.148828 0.483691,-0.148828 0.40721,0 0.644922,0.279053 0.239778,0.276985 0.239778,0.75861 v 0.138492 h -1.595768 v 0.04754 q 0,0.380338 0.217041,0.634586 0.219108,0.252181 0.549838,0.252181 0.198437,0 0.349332,-0.07235 0.152962,-0.07235 0.276986,-0.23151 l 0.155029,0.117822 q -0.272851,0.394808 -0.791683,0.394808 z m -0.04547,-2.108398 q -0.279053,0 -0.471289,0.204638 -0.190169,0.204639 -0.23151,0.549838 h 1.34152 v -0.02687 q -0.01034,-0.322461 -0.183968,-0.525033 -0.173633,-0.202571 -0.454753,-0.202571 z"
           inkscape:connector-curvature="0" />
        <path
           id="path910"
           style="font-style:normal;font-variant:normal;font-weight:300;font-stretch:normal;font-size:4.23333311px;font-family:Roboto;-inkscape-font-specification:'Roboto Light';fill:#4d4d4d;stroke-width:0.26458332"
           d="m 91.445416,73.223496 0.680062,-1.895492 h 0.254248 l -0.835091,2.236556 h -0.200504 l -0.839226,-2.236556 h 0.254248 z"
           inkscape:connector-curvature="0" />
        <path
           id="path912"
           style="font-style:normal;font-variant:normal;font-weight:300;font-stretch:normal;font-size:4.23333311px;font-family:Roboto;-inkscape-font-specification:'Roboto Light';fill:#4d4d4d;stroke-width:0.26458332"
           d="m 93.648896,73.605901 q -0.285253,0 -0.516764,-0.14056 -0.229443,-0.14056 -0.357601,-0.390674 -0.128157,-0.252181 -0.128157,-0.564306 v -0.08888 q 0,-0.322461 0.124023,-0.580843 0.126091,-0.258382 0.349333,-0.405143 0.223242,-0.148828 0.483691,-0.148828 0.40721,0 0.644922,0.279053 0.239779,0.276985 0.239779,0.75861 v 0.138492 h -1.595768 v 0.04754 q 0,0.380338 0.217041,0.634586 0.219108,0.252181 0.549837,0.252181 0.198437,0 0.349332,-0.07235 0.152963,-0.07235 0.276986,-0.23151 l 0.155029,0.117822 q -0.272851,0.394808 -0.791683,0.394808 z m -0.04547,-2.108398 q -0.279053,0 -0.471289,0.204638 -0.190169,0.204639 -0.23151,0.549838 h 1.34152 v -0.02687 q -0.01033,-0.322461 -0.183968,-0.525033 -0.173633,-0.202571 -0.454753,-0.202571 z"
           inkscape:connector-curvature="0" />
        <path
           id="path914"
           style="font-style:normal;font-variant:normal;font-weight:300;font-stretch:normal;font-size:4.23333311px;font-family:Roboto;-inkscape-font-specification:'Roboto Light';fill:#4d4d4d;stroke-width:0.26458332"
           d="M 95.250867,73.56456 H 95.00282 v -3.175 h 0.248047 z"
           inkscape:connector-curvature="0" />
        <path
           id="path916"
           style="font-style:normal;font-variant:normal;font-weight:300;font-stretch:normal;font-size:4.23333311px;font-family:Roboto;-inkscape-font-specification:'Roboto Light';fill:#4d4d4d;stroke-width:0.26458332"
           d="m 95.788303,72.413209 q 0,-0.322461 0.124024,-0.580843 0.12609,-0.258382 0.353467,-0.401009 0.229443,-0.144694 0.518831,-0.144694 0.446484,0 0.72347,0.314193 0.276986,0.312125 0.276986,0.82889 v 0.05168 q 0,0.324528 -0.126091,0.584977 -0.124023,0.258382 -0.3514,0.398942 -0.227376,0.14056 -0.518831,0.14056 -0.444417,0 -0.72347,-0.312126 -0.276986,-0.314192 -0.276986,-0.830957 z m 0.248047,0.06821 q 0,0.401009 0.206706,0.659391 0.208773,0.256315 0.545703,0.256315 0.334863,0 0.541569,-0.256315 0.208773,-0.258382 0.208773,-0.680062 v -0.04754 q 0,-0.256315 -0.09508,-0.469222 -0.09508,-0.212907 -0.26665,-0.328662 -0.171566,-0.117822 -0.392741,-0.117822 -0.330729,0 -0.539502,0.260449 -0.208773,0.258382 -0.208773,0.677995 z"
           inkscape:connector-curvature="0" />
        <path
           id="path918"
           style="font-style:normal;font-variant:normal;font-weight:300;font-stretch:normal;font-size:4.23333311px;font-family:Roboto;-inkscape-font-specification:'Roboto Light';fill:#4d4d4d;stroke-width:0.26458332"
           d="m 100.09605,72.46902 q 0,0.522965 -0.231509,0.830957 -0.231511,0.305924 -0.620118,0.305924 -0.458886,0 -0.702799,-0.322461 v 1.141016 h -0.24598 v -3.096452 h 0.229443 l 0.0124,0.31626 q 0.241845,-0.357601 0.700732,-0.357601 0.401009,0 0.628386,0.303857 0.229445,0.303858 0.229445,0.84336 z m -0.248046,-0.04341 q 0,-0.42788 -0.1757,-0.675927 -0.1757,-0.248047 -0.489892,-0.248047 -0.227377,0 -0.390674,0.109554 -0.163298,0.109554 -0.250114,0.318327 v 1.072802 q 0.08888,0.192237 0.254248,0.293523 0.165365,0.101285 0.390674,0.101285 0.312125,0 0.485758,-0.248047 0.1757,-0.250113 0.1757,-0.72347 z"
           inkscape:connector-curvature="0" />
        <path
           id="path920"
           style="font-style:normal;font-variant:normal;font-weight:300;font-stretch:normal;font-size:4.23333311px;font-family:Roboto;-inkscape-font-specification:'Roboto Light';fill:#4d4d4d;stroke-width:0.26458332"
           d="m 101.51198,73.605901 q -0.28525,0 -0.51676,-0.14056 -0.22944,-0.14056 -0.3576,-0.390674 -0.12816,-0.252181 -0.12816,-0.564306 v -0.08888 q 0,-0.322461 0.12402,-0.580843 0.12609,-0.258382 0.34934,-0.405143 0.22324,-0.148828 0.48369,-0.148828 0.40721,0 0.64492,0.279053 0.23978,0.276985 0.23978,0.75861 v 0.138492 h -1.59577 v 0.04754 q 0,0.380338 0.21704,0.634586 0.21911,0.252181 0.54984,0.252181 0.19844,0 0.34933,-0.07235 0.15296,-0.07235 0.27699,-0.23151 l 0.15503,0.117822 q -0.27286,0.394808 -0.79169,0.394808 z m -0.0455,-2.108398 q -0.27905,0 -0.47129,0.204638 -0.19017,0.204639 -0.23151,0.549838 h 1.34152 v -0.02687 q -0.0103,-0.322461 -0.18397,-0.525033 -0.17363,-0.202571 -0.45475,-0.202571 z"
           inkscape:connector-curvature="0" />
        <path
           id="path922"
           style="font-style:normal;font-variant:normal;font-weight:300;font-stretch:normal;font-size:4.23333311px;font-family:Roboto;-inkscape-font-specification:'Roboto Light';fill:#4d4d4d;stroke-width:0.26458332"
           d="m 103.8705,71.538844 q -0.0786,-0.01447 -0.16743,-0.01447 -0.23152,0 -0.39275,0.130225 -0.15916,0.128158 -0.22737,0.374137 v 1.535824 h -0.24598 v -2.236556 h 0.24184 l 0.004,0.355534 q 0.19637,-0.396875 0.63045,-0.396875 0.10335,0 0.1633,0.02687 z"
           inkscape:connector-curvature="0" />
      </g>
    </g>
  </g>
</svg>
