<?xml version="1.0" encoding="UTF-8" standalone="no"?>
<!-- Created with Inkscape (http://www.inkscape.org/) -->

<svg
   xmlns:dc="http://purl.org/dc/elements/1.1/"
   xmlns:cc="http://creativecommons.org/ns#"
   xmlns:rdf="http://www.w3.org/1999/02/22-rdf-syntax-ns#"
   xmlns:svg="http://www.w3.org/2000/svg"
   xmlns="http://www.w3.org/2000/svg"
   xmlns:sodipodi="http://sodipodi.sourceforge.net/DTD/sodipodi-0.dtd"
   xmlns:inkscape="http://www.inkscape.org/namespaces/inkscape"
   version="1.1"
   id="svg50"
   xml:space="preserve"
   width="175.272"
   height="211.076"
   viewBox="0 0 175.272 211.076"
   sodipodi:docname="logo.svg"
   inkscape:version="0.92.2 2405546, 2018-03-11"><metadata
     id="metadata56"><rdf:RDF><cc:Work
         rdf:about=""><dc:format>image/svg+xml</dc:format><dc:type
           rdf:resource="http://purl.org/dc/dcmitype/StillImage" /><dc:title></dc:title></cc:Work></rdf:RDF></metadata><defs
     id="defs54"><clipPath
       clipPathUnits="userSpaceOnUse"
       id="clipPath66"><path
         d="M 0,158.307 H 131.454 V 0 H 0 Z"
         id="path64"
         inkscape:connector-curvature="0" /></clipPath></defs><sodipodi:namedview
     pagecolor="#ffffff"
     bordercolor="#666666"
     borderopacity="1"
     objecttolerance="10"
     gridtolerance="10"
     guidetolerance="10"
     inkscape:pageopacity="0"
     inkscape:pageshadow="2"
     inkscape:window-width="958"
     inkscape:window-height="1055"
     id="namedview52"
     showgrid="false"
     inkscape:zoom="1.1180807"
     inkscape:cx="66.170645"
     inkscape:cy="105.538"
     inkscape:window-x="960"
     inkscape:window-y="23"
     inkscape:window-maximized="0"
     inkscape:current-layer="g58" /><g
     id="g58"
     inkscape:groupmode="layer"
     inkscape:label="Subucoola-Logo-Vektor"
     transform="matrix(1.3333333,0,0,-1.3333333,0,211.076)"><g
       id="g60"><g
         id="g62"
         clip-path="url(#clipPath66)"><g
           id="g68"
           transform="translate(94.3003,88.457)"><path
             d="m 0,0 c -30.384,-11.272 -61.869,-20.867 -94.294,-28.637 v -24.494 c 0,-4.62 3.746,-8.366 8.367,-8.366 H 28.686 c 4.621,0 8.366,3.746 8.366,8.366 v 40.768 C 24.927,-8.498 12.953,-4.379 1.15,0 Z M 28.686,69.85 H -85.927 c -4.621,0 -8.367,-3.746 -8.367,-8.368 v -82.347 c 31.594,7.642 62.279,17.037 91.905,28.039 0.091,0.034 0.184,0.046 0.276,0.073 0.155,0.754 0.333,1.488 0.567,2.176 0.692,2.02 1.953,4.283 3.788,6.793 0.671,0.911 1.669,2.195 2.983,3.857 5.018,6.415 7.528,11.623 7.528,15.631 0,3.583 -1.19,6.45 -3.557,8.594 -2.371,2.152 -5.56,3.225 -9.566,3.225 -1.683,0 -3.5,-0.258 -5.442,-0.781 -1.942,-0.519 -4.046,-1.301 -6.313,-2.346 v 6.202 c 2.142,0.849 4.223,1.486 6.247,1.91 2.014,0.421 3.974,0.633 5.873,0.633 5.903,0 10.505,-1.514 13.814,-4.542 3.303,-3.028 4.953,-7.231 4.953,-12.601 0,-5.015 -3.213,-11.644 -9.635,-19.881 C 7.995,14.683 7.136,13.576 6.559,12.795 5.363,11.229 4.471,9.529 3.873,7.691 3.811,7.501 3.766,7.304 3.71,7.111 14.681,3.04 25.799,-0.807 37.052,-4.432 v 65.914 c 0,4.622 -3.745,8.368 -8.366,8.368"
             style="fill:#00b2dc;fill-opacity:1;fill-rule:nonzero;stroke:none"
             id="path70"
             inkscape:connector-curvature="0" /></g><g
           id="g72"
           transform="translate(21.3262,7.7266)"><path
             d="m 0,0 c 0,-1.348 -0.074,-2.227 -0.224,-2.638 -0.202,-0.55 -0.51,-0.968 -0.926,-1.253 -0.418,-0.285 -0.924,-0.426 -1.52,-0.426 -0.596,0 -1.099,0.143 -1.506,0.433 -0.408,0.288 -0.704,0.694 -0.888,1.213 -0.185,0.521 -0.276,1.449 -0.276,2.788 v 6.876 h -0.181 -0.031 c -0.631,0 -10.734,0.005 -11.192,0.009 -1.356,0.012 -1.896,-0.205 -2.752,-0.821 -0.96,-0.69 -1.305,-1.765 -1.305,-2.893 0,-1.75 1.154,-3.206 3.463,-4.369 l 1.208,-0.604 c 1.04,-0.524 1.56,-1.062 1.56,-1.614 0,-0.297 -0.143,-0.559 -0.433,-0.786 -0.289,-0.228 -0.668,-0.342 -1.141,-0.342 -0.437,0 -0.938,0.151 -1.502,0.453 -0.565,0.302 -1.057,0.698 -1.476,1.187 l -2.204,-2.4 c 1.242,-1.628 2.903,-2.441 4.985,-2.441 1.566,0 2.815,0.425 3.746,1.273 0.931,0.847 1.398,1.906 1.398,3.174 0,0.953 -0.258,1.785 -0.774,2.493 -0.517,0.709 -1.466,1.405 -2.848,2.086 l -1.311,0.657 c -0.569,0.28 -0.926,0.501 -1.07,0.663 -0.144,0.162 -0.217,0.338 -0.217,0.531 0,0.252 0.113,0.465 0.342,0.636 0.161,0.121 0.382,0.183 0.632,0.219 h 7.482 V 1.049 c 0,-2.283 0.14,-3.858 0.419,-4.723 0.394,-1.252 1.074,-2.226 2.041,-2.925 0.965,-0.701 2.232,-1.05 3.798,-1.05 1.442,0 2.633,0.298 3.568,0.898 0.936,0.599 1.645,1.457 2.125,2.577 0.395,0.92 0.592,2.625 0.592,5.118 V 6.993 H 0 Z"
             style="fill:#533d2d;fill-opacity:1;fill-rule:nonzero;stroke:none"
             id="path74"
             inkscape:connector-curvature="0" /></g><g
           id="g76"
           transform="translate(37.1338,4.3955)"><path
             d="m 0,0 c -0.734,-0.781 -1.64,-1.173 -2.714,-1.173 -1.108,0 -2.027,0.384 -2.759,1.153 -0.73,0.77 -1.094,1.778 -1.094,3.024 0,1.22 0.364,2.208 1.094,2.965 0.732,0.757 1.651,1.134 2.759,1.134 1.101,0 2.011,-0.385 2.734,-1.154 C 0.741,5.181 1.103,4.194 1.103,2.99 1.103,1.779 0.734,0.782 0,0 m -1.979,10.351 c -0.842,0 -1.633,-0.159 -2.372,-0.477 C -5.09,9.557 -5.776,9.079 -6.413,8.443 v 6.961 H -9.906 V -4.034 h 3.493 v 1.482 c 0.687,-0.653 1.379,-1.124 2.075,-1.412 0.696,-0.287 1.448,-0.432 2.257,-0.432 1.812,0 3.381,0.704 4.704,2.109 1.323,1.404 1.985,3.15 1.985,5.238 0,2.166 -0.64,3.942 -1.92,5.324 -1.281,1.384 -2.836,2.076 -4.667,2.076"
             style="fill:#533d2d;fill-opacity:1;fill-rule:nonzero;stroke:none"
             id="path78"
             inkscape:connector-curvature="0" /></g><g
           id="g80"
           transform="translate(52.6543,7.5156)"><path
             d="m 0,0 c 0,-1.324 -0.074,-2.188 -0.221,-2.591 -0.197,-0.542 -0.5,-0.953 -0.91,-1.23 -0.41,-0.281 -0.906,-0.42 -1.492,-0.42 -0.586,0 -1.08,0.141 -1.481,0.425 -0.4,0.284 -0.69,0.68 -0.871,1.192 -0.18,0.512 -0.271,1.425 -0.271,2.739 v 6.756 h -3.559 v -5.84 c 0,-2.244 0.138,-3.79 0.413,-4.641 0.387,-1.229 1.054,-2.187 2.005,-2.874 0.95,-0.688 2.194,-1.032 3.733,-1.032 1.417,0 2.586,0.295 3.506,0.883 0.918,0.59 1.615,1.434 2.087,2.533 0.387,0.904 0.581,2.579 0.581,5.028 v 5.943 l -3.52,0 z"
             style="fill:#533d2d;fill-opacity:1;fill-rule:nonzero;stroke:none"
             id="path82"
             inkscape:connector-curvature="0" /></g><g
           id="g84"
           transform="translate(66.1885,11.4736)"><path
             d="M 0,0 C 0.724,0 1.354,-0.112 1.892,-0.336 2.429,-0.56 2.973,-0.959 3.523,-1.535 l 2.93,1.611 C 5.749,1.1 4.842,1.888 3.733,2.441 2.625,2.996 1.374,3.272 -0.018,3.272 c -1.503,0 -2.864,-0.326 -4.079,-0.979 -1.216,-0.652 -2.164,-1.551 -2.842,-2.694 -0.68,-1.142 -1.019,-2.393 -1.019,-3.75 0,-1.959 0.697,-3.67 2.094,-5.13 1.396,-1.462 3.329,-2.193 5.795,-2.193 2.741,0 4.865,0.979 6.367,2.934 l -2.775,1.9 c -0.877,-1.074 -2.102,-1.611 -3.676,-1.611 -1.275,0 -2.302,0.378 -3.086,1.134 -0.783,0.754 -1.174,1.727 -1.174,2.92 0,1.227 0.406,2.233 1.22,3.019 C -2.382,-0.394 -1.315,0 0,0"
             style="fill:#533d2d;fill-opacity:1;fill-rule:nonzero;stroke:none"
             id="path86"
             inkscape:connector-curvature="0" /></g><g
           id="g88"
           transform="translate(83.4531,4.4219)"><path
             d="m 0,0 c -0.732,-0.765 -1.648,-1.147 -2.75,-1.147 -1.102,0 -2.012,0.377 -2.73,1.134 -0.719,0.755 -1.079,1.744 -1.079,2.964 0,1.187 0.364,2.159 1.091,2.921 0.727,0.76 1.638,1.141 2.731,1.141 1.119,0 2.038,-0.377 2.757,-1.128 C 0.738,5.132 1.098,4.154 1.098,2.951 1.098,1.748 0.732,0.765 0,0 m 0.936,9.332 c -1.165,0.662 -2.408,0.992 -3.731,0.992 -1.83,0 -3.451,-0.636 -4.86,-1.907 -1.607,-1.46 -2.409,-3.287 -2.409,-5.479 0,-2.045 0.71,-3.783 2.132,-5.213 1.422,-1.431 3.139,-2.147 5.151,-2.147 1.365,0 2.616,0.324 3.75,0.974 1.135,0.649 2.03,1.549 2.687,2.7 0.658,1.151 0.987,2.389 0.987,3.712 0,1.315 -0.327,2.54 -0.98,3.674 C 3.01,7.772 2.101,8.67 0.936,9.332"
             style="fill:#533d2d;fill-opacity:1;fill-rule:nonzero;stroke:none"
             id="path90"
             inkscape:connector-curvature="0" /></g><g
           id="g92"
           transform="translate(99.5615,4.4219)"><path
             d="m 0,0 c -0.732,-0.765 -1.649,-1.147 -2.751,-1.147 -1.102,0 -2.012,0.377 -2.73,1.134 -0.719,0.755 -1.08,1.744 -1.08,2.964 0,1.187 0.365,2.159 1.092,2.921 0.727,0.76 1.638,1.141 2.731,1.141 1.119,0 2.038,-0.377 2.757,-1.128 C 0.737,5.132 1.097,4.154 1.097,2.951 1.097,1.748 0.731,0.765 0,0 m 0.936,9.332 c -1.165,0.662 -2.409,0.992 -3.732,0.992 -1.83,0 -3.451,-0.636 -4.86,-1.907 -1.607,-1.46 -2.409,-3.287 -2.409,-5.479 0,-2.045 0.711,-3.783 2.132,-5.213 1.422,-1.431 3.139,-2.147 5.15,-2.147 1.366,0 2.617,0.324 3.751,0.974 1.135,0.649 2.03,1.549 2.687,2.7 0.658,1.151 0.987,2.389 0.987,3.712 0,1.315 -0.328,2.54 -0.98,3.674 C 3.009,7.772 2.1,8.67 0.936,9.332"
             style="fill:#533d2d;fill-opacity:1;fill-rule:nonzero;stroke:none"
             id="path94"
             inkscape:connector-curvature="0" /></g><path
           d="m 105.898,0.361 h 3.52 v 19.438 h -3.52 z"
           style="fill:#533d2d;fill-opacity:1;fill-rule:nonzero;stroke:none"
           id="path96"
           inkscape:connector-curvature="0" /><g
           id="g98"
           transform="translate(121.2363,4.376)"><path
             d="m 0,0 c -0.728,-0.77 -1.644,-1.153 -2.749,-1.153 -1.071,0 -1.973,0.391 -2.705,1.173 -0.732,0.782 -1.098,1.779 -1.098,2.99 0,1.204 0.361,2.19 1.079,2.959 0.72,0.768 1.623,1.153 2.711,1.153 C -1.648,7.122 -0.728,6.745 0,5.988 0.728,5.231 1.092,4.243 1.092,3.023 1.092,1.777 0.728,0.77 0,0 m 0.937,8.463 c -0.626,0.636 -1.309,1.113 -2.046,1.431 -0.739,0.318 -1.529,0.476 -2.37,0.476 -1.829,0 -3.381,-0.691 -4.661,-2.075 -1.279,-1.383 -1.919,-3.158 -1.919,-5.324 0,-2.088 0.662,-3.834 1.984,-5.239 1.321,-1.405 2.888,-2.108 4.699,-2.108 0.808,0 1.556,0.145 2.247,0.432 0.692,0.288 1.379,0.758 2.066,1.412 v -1.483 h 3.52 v 14.026 h -3.52 z"
             style="fill:#533d2d;fill-opacity:1;fill-rule:nonzero;stroke:none"
             id="path100"
             inkscape:connector-curvature="0" /></g><g
           id="g102"
           transform="translate(130.8604,3.4482)"><path
             d="m 0,0 c -0.395,0.392 -0.872,0.587 -1.431,0.587 -0.558,0 -1.035,-0.195 -1.43,-0.587 -0.396,-0.391 -0.593,-0.865 -0.593,-1.424 0,-0.559 0.197,-1.036 0.593,-1.43 0.395,-0.396 0.872,-0.594 1.43,-0.594 0.559,0 1.036,0.198 1.431,0.594 0.396,0.394 0.594,0.871 0.594,1.43 C 0.594,-0.865 0.396,-0.391 0,0"
             style="fill:#533d2d;fill-opacity:1;fill-rule:nonzero;stroke:none"
             id="path104"
             inkscape:connector-curvature="0" /></g></g></g></g></svg>