<?xml version="1.0" standalone="no"?>
<!DOCTYPE svg PUBLIC "-//W3C//DTD SVG 20010904//EN"
 "http://www.w3.org/TR/2001/REC-SVG-20010904/DTD/svg10.dtd">
<svg version="1.0" xmlns="http://www.w3.org/2000/svg"
 width="632.000000pt" height="632.000000pt" viewBox="0 0 632.000000 632.000000"
 preserveAspectRatio="xMidYMid meet">
<metadata>
Created by potrace 1.11, written by Peter Selinger 2001-2013
</metadata>
<g transform="translate(0.000000,632.000000) scale(0.100000,-0.100000)"
fill="#000000" stroke="none">
<path d="M3080 6292 c-30 -16 -105 -59 -167 -95 -62 -36 -132 -77 -155 -90
-24 -13 -88 -50 -143 -82 -624 -361 -799 -462 -965 -557 -19 -11 -71 -41 -115
-67 -111 -64 -103 -60 -212 -122 -54 -31 -186 -107 -293 -170 -107 -62 -235
-136 -283 -163 -49 -28 -107 -62 -130 -75 -115 -66 -162 -98 -181 -124 l-21
-28 0 -1559 0 -1559 21 -28 c23 -31 54 -51 339 -215 251 -145 620 -358 790
-456 382 -221 894 -517 925 -534 19 -11 94 -54 165 -96 72 -41 144 -83 160
-92 46 -27 142 -82 225 -131 101 -59 146 -60 245 -2 39 22 86 50 105 60 19 11
107 62 195 113 88 51 264 152 390 225 127 73 318 183 425 245 107 62 210 121
228 132 18 10 102 58 185 107 84 49 211 122 282 163 72 42 218 126 325 188
107 62 215 124 240 138 129 72 216 130 234 155 l21 28 3 1550 c2 1710 7 1582
-60 1632 -27 20 -140 86 -473 277 -16 10 -86 50 -155 90 -68 40 -140 82 -160
93 -19 10 -93 53 -165 95 -71 41 -143 83 -160 92 -96 56 -164 95 -190 111 -16
10 -46 26 -65 37 -19 11 -150 86 -290 167 -1131 654 -1020 600 -1120 547z
m-20 -1518 c25 -15 49 -52 136 -209 15 -27 35 -63 45 -80 10 -16 26 -46 37
-65 10 -19 113 -201 227 -405 114 -203 222 -395 238 -425 17 -30 38 -67 49
-82 10 -14 18 -29 18 -33 0 -3 26 -52 59 -108 32 -56 71 -124 86 -152 15 -27
55 -99 90 -160 34 -60 75 -135 92 -165 17 -30 48 -86 70 -125 185 -329 429
-765 440 -785 19 -36 16 -80 -7 -118 -36 -59 -55 -62 -389 -59 l-301 2 -29 30
c-16 17 -41 53 -56 80 -15 28 -118 211 -229 408 -110 197 -215 384 -232 415
-17 31 -50 91 -74 132 -67 116 -109 191 -132 238 -12 23 -25 42 -29 42 -4 0
-43 -64 -87 -142 -105 -188 -110 -198 -290 -518 -85 -151 -169 -300 -185 -330
-143 -259 -184 -324 -217 -341 -30 -17 -61 -18 -334 -16 -332 2 -329 2 -363
66 -27 50 -21 93 22 161 12 19 33 55 47 80 14 25 83 146 153 270 70 124 141
250 157 280 17 30 34 60 38 65 4 6 17 26 27 45 49 87 80 143 235 415 252 442
261 458 275 485 8 14 30 52 49 85 72 125 70 117 39 172 -15 26 -41 73 -58 103
-17 30 -58 105 -92 165 -34 61 -65 117 -69 125 -4 8 -12 24 -19 35 -7 11 -45
79 -85 151 -78 142 -86 177 -53 228 36 54 41 55 369 56 265 0 308 -2 332 -16z"/>
</g>
</svg>
