<?xml version="1.0" encoding="UTF-8" standalone="no"?>
<!-- Created with Inkscape (http://www.inkscape.org/) -->

<svg
   xmlns:dc="http://purl.org/dc/elements/1.1/"
   xmlns:cc="http://creativecommons.org/ns#"
   xmlns:rdf="http://www.w3.org/1999/02/22-rdf-syntax-ns#"
   xmlns:svg="http://www.w3.org/2000/svg"
   xmlns="http://www.w3.org/2000/svg"
   xmlns:sodipodi="http://sodipodi.sourceforge.net/DTD/sodipodi-0.dtd"
   xmlns:inkscape="http://www.inkscape.org/namespaces/inkscape"
   width="55.206963mm"
   height="6.432682mm"
   viewBox="0 0 55.206963 6.432682"
   version="1.1"
   id="svg1342"
   inkscape:version="0.92.4 5da689c313, 2019-01-14"
   sodipodi:docname="scherdichrein.svg">
  <defs
     id="defs1336" />
  <sodipodi:namedview
     id="base"
     pagecolor="#ffffff"
     bordercolor="#666666"
     borderopacity="1.0"
     inkscape:pageopacity="0.0"
     inkscape:pageshadow="2"
     inkscape:zoom="2.8"
     inkscape:cx="116.50937"
     inkscape:cy="-124.03494"
     inkscape:document-units="mm"
     inkscape:current-layer="text295-3"
     showgrid="false"
     fit-margin-top="0"
     fit-margin-left="0"
     fit-margin-right="0"
     fit-margin-bottom="0"
     inkscape:window-width="1278"
     inkscape:window-height="2133"
     inkscape:window-x="4480"
     inkscape:window-y="25"
     inkscape:window-maximized="0" />
  <metadata
     id="metadata1339">
    <rdf:RDF>
      <cc:Work
         rdf:about="">
        <dc:format>image/svg+xml</dc:format>
        <dc:type
           rdf:resource="http://purl.org/dc/dcmitype/StillImage" />
        <dc:title />
      </cc:Work>
    </rdf:RDF>
  </metadata>
  <g
     inkscape:label="Layer 1"
     inkscape:groupmode="layer"
     id="layer1"
     transform="translate(-60.086993,-85.896758)">
    <g
       aria-label="ScherDichRein"
       style="font-style:normal;font-weight:normal;font-size:10.58333302px;line-height:1.25;font-family:sans-serif;letter-spacing:0px;word-spacing:0px;fill:#000000;fill-opacity:1;stroke:none;stroke-width:0.26458332"
       id="text295-3">
      <path
         d="m 63.46043,90.667526 q 0,-0.3514 -0.248047,-0.537435 -0.248047,-0.190169 -0.892969,-0.396875 -0.644921,-0.21084 -1.021126,-0.413411 -1.02526,-0.553972 -1.02526,-1.492416 0,-0.487825 0.272851,-0.868164 0.276986,-0.384472 0.789616,-0.599446 0.516764,-0.214974 1.157552,-0.214974 0.644922,0 1.149284,0.235644 0.504362,0.231511 0.781348,0.657324 0.281119,0.425814 0.281119,0.967383 h -1.240234 q 0,-0.413411 -0.260449,-0.640788 -0.260449,-0.23151 -0.731738,-0.23151 -0.454753,0 -0.706934,0.194303 -0.252181,0.19017 -0.252181,0.504362 0,0.293522 0.293522,0.49196 0.297656,0.198437 0.872298,0.37207 1.058334,0.318327 1.542025,0.789616 0.483691,0.471289 0.483691,1.174089 0,0.781347 -0.591178,1.227832 -0.591178,0.44235 -1.591634,0.44235 -0.694531,0 -1.265039,-0.252181 -0.570508,-0.256315 -0.872298,-0.698666 -0.297656,-0.44235 -0.297656,-1.02526 h 1.244368 q 0,0.996322 1.190625,0.996322 0.44235,0 0.690397,-0.177767 0.248047,-0.181901 0.248047,-0.504362 z"
         style="font-style:normal;font-variant:normal;font-weight:bold;font-stretch:normal;font-size:8.46666622px;line-height:0;font-family:Roboto;-inkscape-font-specification:'Roboto Bold';fill:#999999;stroke-width:0.26458332"
         id="path814" />
      <path
         d="m 67.329961,91.366191 q 0.330729,0 0.537435,-0.181901 0.206705,-0.181901 0.214974,-0.483691 h 1.120345 q -0.0041,0.454752 -0.248047,0.835091 -0.243913,0.376204 -0.669727,0.587044 -0.421679,0.206706 -0.93431,0.206706 -0.959114,0 -1.513085,-0.607715 -0.553972,-0.611849 -0.553972,-1.686719 v -0.07855 q 0,-1.033528 0.549837,-1.649511 0.549838,-0.615984 1.508952,-0.615984 0.839225,0 1.343587,0.479558 0.508496,0.475423 0.516765,1.269173 H 68.08237 q -0.0083,-0.347266 -0.214974,-0.56224 -0.206706,-0.219108 -0.545703,-0.219108 -0.417546,0 -0.63252,0.305925 -0.21084,0.30179 -0.21084,0.983919 v 0.124023 q 0,0.690397 0.21084,0.992188 0.21084,0.30179 0.640788,0.30179 z"
         style="font-style:normal;font-variant:normal;font-weight:bold;font-stretch:normal;font-size:8.46666622px;line-height:0;font-family:Roboto;-inkscape-font-specification:'Roboto Bold';fill:#999999;stroke-width:0.26458332"
         id="path816" />
      <path
         d="m 71.050664,88.261471 q 0.475423,-0.570508 1.194759,-0.570508 1.455208,0 1.475879,1.690853 v 2.864942 h -1.194759 v -2.831869 q 0,-0.384472 -0.165365,-0.566374 -0.165365,-0.186035 -0.549837,-0.186035 -0.525033,0 -0.760677,0.405144 v 3.179134 h -1.194759 v -6.35 h 1.194759 z"
         style="font-style:normal;font-variant:normal;font-weight:bold;font-stretch:normal;font-size:8.46666622px;line-height:0;font-family:Roboto;-inkscape-font-specification:'Roboto Bold';fill:#999999;stroke-width:0.26458332"
         id="path818" />
      <path
         d="m 76.689595,92.32944 q -0.983919,0 -1.604036,-0.603581 -0.615983,-0.603581 -0.615983,-1.60817 v -0.115756 q 0,-0.67386 0.260449,-1.203027 0.260449,-0.533301 0.735873,-0.818555 0.479557,-0.289388 1.091406,-0.289388 0.917773,0 1.442806,0.578776 0.529166,0.578776 0.529166,1.641244 v 0.487825 h -2.848404 q 0.05788,0.438217 0.347265,0.7028 0.293522,0.264583 0.740007,0.264583 0.690397,0 1.079003,-0.500228 l 0.587045,0.657324 q -0.268718,0.380339 -0.727604,0.595313 -0.458887,0.21084 -1.016993,0.21084 z M 76.55317,88.658346 q -0.355534,0 -0.578776,0.239779 -0.219108,0.239779 -0.28112,0.686263 h 1.661914 v -0.09508 q -0.0083,-0.396875 -0.214974,-0.611849 -0.206706,-0.219108 -0.587044,-0.219108 z"
         style="font-style:normal;font-variant:normal;font-weight:bold;font-stretch:normal;font-size:8.46666622px;line-height:0;font-family:Roboto;-inkscape-font-specification:'Roboto Bold';fill:#999999;stroke-width:0.26458332"
         id="path820" />
      <path
         d="m 81.724946,88.893991 q -0.243913,-0.03307 -0.429948,-0.03307 -0.677995,0 -0.888835,0.458887 v 2.926953 h -1.194759 v -4.473112 h 1.128614 l 0.03307,0.533301 q 0.359667,-0.615984 0.996321,-0.615984 0.198438,0 0.37207,0.05374 z"
         style="font-style:normal;font-variant:normal;font-weight:bold;font-stretch:normal;font-size:8.46666622px;line-height:0;font-family:Roboto;-inkscape-font-specification:'Roboto Bold';fill:#999999;stroke-width:0.26458332"
         id="path822" />
      <path
         d="m 82.382272,92.246758 v -6.019271 h 1.852083 q 0.79375,0 1.418002,0.359668 0.628385,0.355534 0.979785,1.016992 0.351399,0.657324 0.351399,1.496549 v 0.276986 q 0,0.839225 -0.347265,1.492415 -0.343132,0.65319 -0.971517,1.012858 -0.628386,0.359668 -1.418001,0.363803 z m 1.240234,-5.014681 v 4.018359 h 0.599447 q 0.727604,0 1.112077,-0.475423 0.384472,-0.475423 0.392741,-1.360124 v -0.318327 q 0,-0.917773 -0.380339,-1.389062 -0.380338,-0.475423 -1.112077,-0.475423 z"
         style="font-style:normal;font-variant:normal;font-weight:bold;font-stretch:normal;font-size:8.46666622px;line-height:0;font-family:Roboto;-inkscape-font-specification:'Roboto Bold';fill:#999999;stroke-width:0.26458332"
         id="path824" />
      <path
         d="m 89.071268,92.246758 h -1.198893 v -4.473112 h 1.198893 z m -1.269173,-5.630664 q 0,-0.268718 0.177767,-0.44235 0.181901,-0.173633 0.49196,-0.173633 0.305924,0 0.487825,0.173633 0.181901,0.173632 0.181901,0.44235 0,0.272851 -0.186035,0.446484 -0.181901,0.173633 -0.483691,0.173633 -0.301791,0 -0.487826,-0.173633 -0.181901,-0.173633 -0.181901,-0.446484 z"
         style="font-style:normal;font-variant:normal;font-weight:bold;font-stretch:normal;font-size:8.46666622px;line-height:0;font-family:Roboto;-inkscape-font-specification:'Roboto Bold';fill:#999999;stroke-width:0.26458332"
         id="path826" />
      <path
         d="m 91.919673,91.366191 q 0.33073,0 0.537435,-0.181901 0.206706,-0.181901 0.214974,-0.483691 h 1.120345 q -0.0041,0.454752 -0.248047,0.835091 -0.243912,0.376204 -0.669726,0.587044 -0.42168,0.206706 -0.93431,0.206706 -0.959115,0 -1.513086,-0.607715 -0.553971,-0.611849 -0.553971,-1.686719 v -0.07855 q 0,-1.033528 0.549837,-1.649511 0.549837,-0.615984 1.508952,-0.615984 0.839225,0 1.343587,0.479558 0.508496,0.475423 0.516764,1.269173 h -1.120345 q -0.0083,-0.347266 -0.214974,-0.56224 -0.206705,-0.219108 -0.545703,-0.219108 -0.417545,0 -0.632519,0.305925 -0.21084,0.30179 -0.21084,0.983919 v 0.124023 q 0,0.690397 0.21084,0.992188 0.21084,0.30179 0.640787,0.30179 z"
         style="font-style:normal;font-variant:normal;font-weight:bold;font-stretch:normal;font-size:8.46666622px;line-height:0;font-family:Roboto;-inkscape-font-specification:'Roboto Bold';fill:#999999;stroke-width:0.26458332"
         id="path828" />
      <path
         d="m 95.640374,88.261471 q 0.475423,-0.570508 1.194759,-0.570508 1.455208,0 1.475879,1.690853 v 2.864942 h -1.194759 v -2.831869 q 0,-0.384472 -0.165365,-0.566374 -0.165364,-0.186035 -0.549837,-0.186035 -0.525033,0 -0.760677,0.405144 v 3.179134 h -1.194759 v -6.35 h 1.194759 z"
         style="font-style:normal;font-variant:normal;font-weight:bold;font-stretch:normal;font-size:8.46666622px;line-height:0;font-family:Roboto;-inkscape-font-specification:'Roboto Bold';fill:#999999;stroke-width:0.26458332"
         id="path830" />
      <path
         d="m 101.52735,90.043275 h -0.98805 v 2.203483 h -1.240234 v -6.019271 h 2.236554 q 1.0666,0 1.64538,0.475423 0.57878,0.475423 0.57878,1.343587 0,0.615983 -0.26872,1.029395 -0.26459,0.409277 -0.80615,0.65319 l 1.30224,2.459798 v 0.05788 h -1.33118 z m -0.98805,-1.00459 h 1.00046 q 0.46715,0 0.72347,-0.235645 0.25631,-0.239778 0.25631,-0.657324 0,-0.425814 -0.24391,-0.669726 -0.23978,-0.243913 -0.74001,-0.243913 h -0.99632 z"
         style="font-style:normal;font-variant:normal;font-weight:bold;font-stretch:normal;font-size:8.46666622px;line-height:0;font-family:Roboto;-inkscape-font-specification:'Roboto Bold';fill:#999999;stroke-width:0.26458332"
         id="path832" />
      <path
         d="m 106.68673,92.32944 q -0.98392,0 -1.60404,-0.603581 -0.61598,-0.603581 -0.61598,-1.60817 v -0.115756 q 0,-0.67386 0.26045,-1.203027 0.26045,-0.533301 0.73587,-0.818555 0.47956,-0.289388 1.09141,-0.289388 0.91777,0 1.4428,0.578776 0.52917,0.578776 0.52917,1.641244 v 0.487825 H 105.678 q 0.0579,0.438217 0.34727,0.7028 0.29352,0.264583 0.74001,0.264583 0.69039,0 1.079,-0.500228 l 0.58704,0.657324 q -0.26871,0.380339 -0.7276,0.595313 -0.45889,0.21084 -1.01699,0.21084 z m -0.13643,-3.671094 q -0.35553,0 -0.57877,0.239779 -0.21911,0.239779 -0.28112,0.686263 h 1.66191 v -0.09508 q -0.008,-0.396875 -0.21497,-0.611849 -0.20671,-0.219108 -0.58705,-0.219108 z"
         style="font-style:normal;font-variant:normal;font-weight:bold;font-stretch:normal;font-size:8.46666622px;line-height:0;font-family:Roboto;-inkscape-font-specification:'Roboto Bold';fill:#999999;stroke-width:0.26458332"
         id="path834" />
      <path
         d="m 110.46944,92.246758 h -1.19889 v -4.473112 h 1.19889 z m -1.26917,-5.630664 q 0,-0.268718 0.17777,-0.44235 0.1819,-0.173633 0.49196,-0.173633 0.30592,0 0.48782,0.173633 0.1819,0.173632 0.1819,0.44235 0,0.272851 -0.18603,0.446484 -0.1819,0.173633 -0.48369,0.173633 -0.30179,0 -0.48783,-0.173633 -0.1819,-0.173633 -0.1819,-0.446484 z"
         style="font-style:normal;font-variant:normal;font-weight:bold;font-stretch:normal;font-size:8.46666622px;line-height:0;font-family:Roboto;-inkscape-font-specification:'Roboto Bold';fill:#999999;stroke-width:0.26458332"
         id="path836" />
      <path
         d="m 112.55717,87.773646 0.0372,0.516764 q 0.47956,-0.599447 1.28571,-0.599447 0.71107,0 1.05833,0.417546 0.34727,0.417546 0.35554,1.248503 v 2.889746 H 114.0992 V 89.38595 q 0,-0.380338 -0.16537,-0.549837 -0.16536,-0.173633 -0.54983,-0.173633 -0.50437,0 -0.75655,0.429948 v 3.15433 h -1.19476 v -4.473112 z"
         style="font-style:normal;font-variant:normal;font-weight:bold;font-stretch:normal;font-size:8.46666622px;line-height:0;font-family:Roboto;-inkscape-font-specification:'Roboto Bold';fill:#999999;stroke-width:0.26458332"
         id="path838" />
    </g>
  </g>
</svg>
