<?xml version="1.0" encoding="UTF-8" standalone="no"?>
<svg
   xmlns:dc="http://purl.org/dc/elements/1.1/"
   xmlns:cc="http://creativecommons.org/ns#"
   xmlns:rdf="http://www.w3.org/1999/02/22-rdf-syntax-ns#"
   xmlns:svg="http://www.w3.org/2000/svg"
   xmlns="http://www.w3.org/2000/svg"
   xmlns:sodipodi="http://sodipodi.sourceforge.net/DTD/sodipodi-0.dtd"
   xmlns:inkscape="http://www.inkscape.org/namespaces/inkscape"
   version="1.0"
   width="1060.2419pt"
   height="691.79181pt"
   viewBox="0 0 1060.2419 691.79181"
   preserveAspectRatio="xMidYMid meet"
   id="svg2640"
   sodipodi:docname="logo.svg"
   inkscape:version="0.92.2 2405546, 2018-03-11">
  <defs
     id="defs2644" />
  <sodipodi:namedview
     pagecolor="#ffffff"
     bordercolor="#666666"
     borderopacity="1"
     objecttolerance="10"
     gridtolerance="10"
     guidetolerance="10"
     inkscape:pageopacity="0"
     inkscape:pageshadow="2"
     inkscape:window-width="3840"
     inkscape:window-height="2135"
     id="namedview2642"
     showgrid="false"
     fit-margin-top="0"
     fit-margin-left="0"
     fit-margin-right="0"
     fit-margin-bottom="0"
     inkscape:zoom="0.94280904"
     inkscape:cx="468.78583"
     inkscape:cy="614.79769"
     inkscape:window-x="1920"
     inkscape:window-y="25"
     inkscape:window-maximized="0"
     inkscape:current-layer="g2638" />
  <metadata
     id="metadata2630">
Created by potrace 1.11, written by Peter Selinger 2001-2013
<rdf:RDF>
  <cc:Work
     rdf:about="">
    <dc:format>image/svg+xml</dc:format>
    <dc:type
       rdf:resource="http://purl.org/dc/dcmitype/StillImage" />
    <dc:title></dc:title>
  </cc:Work>
</rdf:RDF>
</metadata>
  <g
     transform="matrix(0.1,0,0,-0.1,-0.53820623,876.53191)"
     id="g2638"
     style="fill:#000000;stroke:none">
    <g
       id="g3192">
      <path
         id="path2632"
         d="m 288,8764 c -2,-1 -55,-4 -118,-8 -63,-3 -124,-7 -135,-10 -11,-2 -23,-5 -27,-5 -11,-1 14,-107 50,-211 3,-8 6,-20 7,-26 4,-18 45,-152 66,-214 16,-50 76,-254 85,-290 3,-14 76,-283 145,-535 17,-60 32,-119 34,-130 2,-11 17,-68 34,-127 16,-60 27,-108 24,-108 -3,0 0,-6 6,-13 6,-8 13,-24 15,-38 3,-13 5,-24 6,-24 1,0 3,-7 5,-15 2,-8 6,-26 9,-40 5,-22 24,-92 57,-210 17,-58 29,-104 33,-120 2,-8 25,-89 51,-180 26,-91 49,-172 51,-180 5,-20 28,-100 54,-185 11,-38 22,-79 25,-90 2,-11 25,-90 50,-175 26,-85 53,-179 61,-208 7,-29 30,-108 50,-175 20,-67 40,-135 44,-152 5,-16 22,-77 40,-135 17,-58 33,-114 35,-125 2,-11 29,-105 60,-210 60,-205 94,-325 102,-365 7,-33 9,-42 16,-60 3,-8 8,-33 11,-55 2,-22 7,-49 9,-60 18,-79 22,-230 19,-830 -6,-1697 -8,-1581 22,-1590 43,-13 1009,-25 1051,-12 11,3 23,6 26,6 26,3 31,398 27,1876 -2,389 0,405 68,636 25,85 47,161 49,169 2,8 4,15 5,15 1,0 3,7 5,15 2,8 13,47 25,85 12,39 22,75 24,80 24,89 99,340 157,528 22,70 42,135 44,145 2,9 18,62 35,117 18,55 38,120 45,145 7,25 25,86 40,135 15,50 28,95 29,100 2,6 6,17 9,25 4,8 15,47 26,85 11,39 31,111 46,160 15,50 40,133 55,185 16,52 41,136 55,185 15,50 28,95 29,100 1,6 11,37 21,70 10,33 30,101 45,150 15,50 37,123 50,164 12,41 23,79 24,85 2,6 13,45 25,86 13,41 24,80 26,85 1,6 5,17 8,25 5,13 73,244 81,275 1,6 9,30 16,55 8,25 14,47 15,50 1,3 7,23 13,45 6,22 11,42 11,45 -1,3 6,23 15,45 12,33 27,82 42,140 6,24 47,161 52,175 7,20 6,18 21,70 6,25 15,52 18,60 3,8 7,20 9,25 2,9 16,58 86,290 16,55 33,114 37,130 l 8,31 -431,3 c -237,2 -487,4 -556,5 -133,2 -152,-2 -174,-37 -13,-19 -88,-274 -120,-407 -14,-56 -28,-107 -33,-120 -3,-8 -7,-19 -8,-25 -2,-5 -19,-66 -40,-135 -20,-69 -41,-143 -46,-165 -5,-22 -12,-46 -14,-53 -2,-7 -4,-13 -4,-15 0,-1 -7,-24 -16,-52 -20,-67 -66,-226 -70,-245 -2,-8 -4,-15 -5,-15 -1,0 -3,-7 -5,-15 -2,-8 -15,-54 -29,-103 -14,-48 -26,-94 -26,-102 0,-8 -5,-15 -12,-15 -6,0 -9,-3 -6,-6 4,-3 -3,-36 -13,-72 -11,-37 -22,-74 -24,-82 -1,-8 -10,-39 -19,-67 -9,-29 -23,-77 -32,-105 -9,-29 -17,-60 -19,-69 -7,-35 -27,-105 -35,-120 -10,-19 -25,-90 -22,-101 1,-5 -2,-8 -6,-8 -5,0 -9,-6 -10,-12 -1,-17 -16,-74 -81,-291 -11,-37 -20,-71 -21,-75 0,-4 -6,-22 -12,-40 -10,-27 -17,-32 -37,-30 -35,4 -57,49 -90,186 -5,20 -15,55 -21,77 -6,22 -13,47 -14,55 -2,8 -6,22 -9,30 -4,8 -8,29 -11,45 -2,17 -5,30 -6,30 -1,0 -3,7 -5,15 -4,17 -47,181 -75,285 -11,39 -22,85 -25,104 -3,19 -8,38 -11,43 -3,5 -14,44 -25,86 -11,42 -21,84 -23,92 -3,8 -11,42 -20,75 -24,94 -51,197 -96,365 -22,85 -42,162 -44,170 -2,8 -16,60 -31,115 -14,55 -30,116 -35,135 -19,83 -72,286 -77,300 -3,8 -7,20 -8,25 -3,24 -41,156 -80,280 -18,59 -25,70 -46,73 -28,4 -788,10 -791,6 z"
         inkscape:connector-curvature="0" />
      <path
         id="path2634"
         d="m 4600,8762 c 0,-1 -9,-42 -19,-90 -11,-48 -22,-98 -25,-112 -2,-14 -14,-68 -26,-120 -11,-52 -23,-106 -24,-120 -2,-14 -9,-43 -14,-65 -11,-38 -39,-167 -47,-210 -2,-11 -6,-31 -9,-45 -4,-14 -9,-38 -11,-55 -3,-16 -8,-37 -10,-45 -4,-14 -7,-27 -20,-95 -3,-16 -8,-37 -10,-45 -2,-8 -7,-31 -10,-50 -3,-19 -15,-73 -25,-120 -10,-47 -21,-96 -23,-110 -3,-14 -8,-36 -11,-50 -3,-14 -8,-36 -10,-50 -3,-14 -18,-90 -35,-170 -17,-80 -33,-156 -35,-170 -3,-14 -26,-124 -51,-245 -25,-121 -48,-231 -50,-245 -3,-14 -21,-101 -41,-195 -19,-93 -38,-181 -40,-195 -2,-14 -7,-36 -10,-50 -3,-14 -8,-34 -10,-45 -8,-45 -13,-73 -23,-120 -6,-27 -13,-61 -15,-75 -3,-14 -5,-25 -6,-25 -1,0 -3,-11 -6,-25 -2,-14 -8,-45 -14,-70 -5,-25 -12,-56 -14,-70 -3,-14 -17,-81 -31,-150 -14,-69 -28,-136 -31,-150 -2,-14 -9,-45 -14,-70 -6,-25 -13,-56 -15,-70 -3,-14 -7,-36 -10,-50 -3,-14 -8,-36 -11,-50 -3,-14 -7,-36 -10,-50 -2,-14 -9,-45 -14,-70 -6,-25 -12,-54 -14,-65 -3,-11 -21,-101 -41,-200 -21,-99 -39,-187 -40,-195 -2,-8 -4,-15 -5,-15 -1,0 -3,-13 -6,-30 -5,-36 -12,-70 -14,-70 -1,0 -3,-16 -6,-35 -2,-19 -9,-48 -14,-64 -6,-16 -8,-31 -5,-34 2,-3 0,-12 -5,-21 -4,-9 -11,-35 -14,-57 -7,-45 -10,-61 -25,-124 -5,-25 -12,-58 -15,-75 -9,-49 -15,-76 -20,-93 -3,-9 -8,-37 -11,-62 -4,-24 -8,-47 -10,-51 -2,-3 -7,-19 -10,-35 -3,-16 -14,-69 -25,-119 -11,-49 -22,-103 -25,-120 -4,-28 -7,-46 -20,-105 -6,-25 -11,-51 -19,-93 -6,-29 -24,-117 -30,-142 -2,-11 -9,-41 -15,-66 -6,-25 -13,-61 -15,-80 -3,-19 -10,-54 -17,-79 -6,-25 -13,-56 -15,-70 -2,-14 -7,-36 -9,-50 -3,-14 -8,-38 -11,-55 -3,-16 -9,-46 -14,-65 -5,-19 -12,-53 -16,-75 -3,-22 -8,-43 -10,-46 -2,-4 -6,-26 -9,-49 -3,-24 -8,-46 -10,-50 -3,-4 -7,-25 -10,-46 -4,-22 -8,-47 -11,-56 -5,-17 -10,-42 -19,-88 -2,-14 -23,-113 -46,-220 -22,-107 -42,-203 -44,-213 -3,-14 3,-17 33,-18 20,0 270,-2 555,-4 l 518,-3 9,21 c 8,20 24,89 36,157 2,14 11,57 20,95 9,39 18,81 20,95 3,14 7,33 10,42 5,18 9,38 18,89 3,19 13,61 21,94 9,33 18,75 20,94 8,49 35,89 64,96 43,9 1325,3 1343,-6 34,-18 53,-77 83,-264 2,-11 11,-54 19,-95 9,-41 18,-90 21,-109 3,-19 7,-37 10,-41 2,-4 7,-22 10,-41 10,-59 34,-172 45,-210 l 10,-36 88,3 c 48,2 218,6 377,9 390,7 658,13 668,14 8,1 5,22 -18,136 -8,39 -17,87 -21,109 -3,21 -8,48 -10,60 -5,22 -11,51 -18,89 -3,12 -12,58 -20,102 -16,83 -22,116 -31,163 -11,52 -14,67 -24,122 -16,87 -20,103 -26,130 -3,14 -8,39 -10,55 -3,17 -12,62 -20,102 -8,39 -18,89 -21,110 -3,21 -10,58 -16,83 -5,25 -12,59 -14,75 -2,17 -6,37 -7,45 -2,8 -9,40 -15,70 -6,30 -14,66 -16,80 -2,14 -11,59 -20,100 -8,41 -17,86 -20,100 -2,14 -11,66 -21,115 -9,50 -19,101 -21,115 -3,14 -11,57 -19,95 -8,39 -16,81 -19,95 -3,14 -10,50 -16,80 -6,30 -13,71 -16,90 -3,19 -7,43 -10,52 -6,19 -10,42 -18,89 -5,31 -16,91 -31,159 -11,56 -25,127 -30,155 -6,37 -13,71 -21,110 -4,17 -9,40 -10,53 -7,44 -12,68 -22,112 -5,25 -10,52 -10,60 -1,8 -6,38 -12,65 -6,28 -13,61 -16,75 -2,14 -7,36 -10,50 -8,36 -13,61 -19,95 -7,41 -25,135 -32,165 -2,14 -6,34 -8,45 -2,11 -6,30 -8,41 -3,12 -8,37 -11,55 -3,19 -19,104 -36,189 -17,85 -33,170 -36,189 -3,18 -8,43 -10,55 -3,11 -7,32 -10,46 -5,30 -13,66 -20,100 -2,14 -7,36 -9,50 -2,14 -9,50 -15,80 -6,30 -13,66 -16,80 -6,32 -23,118 -30,150 -3,14 -7,40 -10,59 -2,19 -9,52 -14,75 -5,22 -12,57 -15,76 -3,19 -8,42 -10,50 -2,8 -7,31 -10,50 -3,19 -12,67 -20,105 -13,64 -20,103 -30,160 -2,11 -4,20 -5,20 -2,0 -5,16 -15,85 -3,25 -9,52 -12,60 -3,8 -7,29 -10,45 -3,17 -16,84 -29,150 -13,66 -27,136 -29,155 -3,19 -7,46 -10,60 -3,14 -8,36 -10,50 -3,14 -7,36 -11,50 -3,14 -7,35 -9,47 -2,12 -6,36 -11,55 -4,18 -8,42 -10,53 -2,11 -5,31 -9,45 -3,14 -8,40 -11,59 -3,18 -7,41 -9,50 -20,90 -56,277 -59,306 -2,11 -6,29 -9,40 -4,11 -9,37 -11,59 -3,21 -8,46 -10,55 -3,9 -7,32 -11,51 -3,19 -11,62 -18,95 l -12,59 -520,3 c -286,2 -568,4 -628,5 -59,2 -107,2 -107,0 z m 640,-2537 c 5,-13 13,-49 19,-82 6,-32 13,-71 16,-88 3,-16 8,-45 11,-64 3,-18 8,-43 10,-55 2,-11 11,-61 20,-111 8,-49 17,-101 20,-115 2,-14 7,-38 9,-55 3,-16 7,-41 10,-55 7,-29 23,-119 31,-170 3,-19 11,-66 19,-105 14,-69 23,-120 30,-160 2,-11 9,-49 15,-85 7,-36 14,-74 15,-85 2,-11 9,-45 15,-75 6,-30 13,-64 14,-75 3,-18 51,-276 62,-327 2,-13 6,-36 9,-53 3,-16 10,-54 16,-84 6,-30 12,-64 14,-75 1,-12 6,-37 9,-56 4,-19 11,-60 16,-90 6,-30 12,-66 15,-80 3,-13 7,-42 11,-64 3,-22 7,-43 9,-47 2,-3 7,-40 11,-82 l 7,-77 -49,-1 c -27,-1 -67,-3 -89,-5 -22,-2 -222,-7 -444,-10 l -403,-6 6,68 c 4,38 9,76 11,84 2,8 6,31 9,50 3,19 8,46 12,60 3,14 7,39 8,55 1,17 5,35 8,40 3,6 9,33 12,60 4,28 9,57 11,65 2,8 6,27 9,42 3,15 11,63 20,105 8,43 17,92 20,110 2,17 6,36 9,40 3,5 8,29 11,55 3,25 12,79 20,119 15,75 44,224 52,269 2,14 7,36 10,50 4,14 8,34 9,45 3,23 23,128 30,165 5,23 12,63 20,115 2,11 4,22 6,25 1,3 3,10 4,15 0,6 4,26 8,45 14,70 17,85 23,124 3,22 8,44 11,49 3,4 7,27 9,50 3,23 10,60 16,82 5,22 12,49 13,60 2,11 6,30 9,43 3,12 8,32 11,45 24,119 81,321 92,333 18,18 50,3 63,-31 z"
         inkscape:connector-curvature="0" />
      <path
         id="path2636"
         d="m 8208,8745 c -2,-2 -127,-7 -278,-10 -151,-3 -294,-8 -319,-11 -25,-4 -52,-7 -59,-7 -11,0 -12,-177 -8,-981 3,-540 8,-1111 11,-1271 3,-159 7,-450 10,-645 8,-507 12,-749 21,-1225 7,-366 8,-999 5,-2290 -1,-317 3,-422 16,-435 2,-3 59,-6 126,-7 67,-2 127,-5 134,-8 7,-2 13,1 13,8 0,7 3,8 8,2 4,-6 152,-11 395,-13 l 389,-3 -5,993 c -3,546 -7,1050 -9,1120 -3,121 -2,129 19,150 12,12 25,19 28,16 7,-6 103,-279 110,-309 2,-8 10,-32 19,-52 8,-20 12,-37 9,-37 -3,0 -1,-6 5,-12 6,-7 10,-15 11,-18 0,-3 2,-12 5,-20 3,-8 25,-76 50,-150 25,-74 95,-281 156,-460 60,-179 112,-334 115,-345 3,-11 25,-78 51,-150 25,-71 47,-134 48,-140 2,-5 6,-17 9,-25 12,-32 59,-176 62,-190 3,-15 31,-96 46,-135 4,-11 10,-28 13,-38 3,-9 6,-19 7,-22 1,-2 14,-39 28,-81 19,-56 32,-78 46,-82 25,-5 797,-10 808,-5 4,3 58,7 120,9 170,8 171,8 183,19 7,6 -6,58 -46,175 -32,91 -60,172 -63,180 -3,8 -19,56 -36,105 -17,50 -53,155 -82,235 -28,80 -52,150 -53,155 -2,6 -6,17 -9,25 -11,26 -48,135 -50,145 -3,14 -137,395 -147,420 -5,11 -23,63 -40,115 -18,52 -35,104 -40,115 -11,27 -22,58 -26,70 -4,16 -68,197 -124,355 -28,80 -53,152 -55,160 -2,8 -11,32 -20,53 -16,38 -13,57 7,57 18,0 230,111 288,150 192,132 350,380 396,626 21,111 21,185 9,1314 -3,316 -8,753 -10,970 -3,357 -8,497 -22,555 -28,119 -29,124 -48,175 -19,53 -86,180 -118,222 -55,74 -208,218 -287,269 -197,127 -332,176 -565,206 -47,6 -758,7 -1167,2 -37,0 -71,2 -76,5 -5,3 -11,3 -14,1 z m 568,-1129 c 36,2 72,5 80,8 8,3 14,2 14,-2 0,-4 114,-6 253,-5 l 254,1 18,-30 c 17,-29 18,-64 16,-527 -5,-938 -11,-1676 -15,-1701 -2,-14 -5,-37 -5,-52 l -1,-26 -332,3 c -342,4 -392,6 -405,18 -3,4 -8,171 -9,371 -1,201 -5,369 -8,375 -4,5 -2,12 3,15 5,4 6,19 2,34 -8,31 -7,95 3,110 3,6 3,13 -1,15 -10,6 -9,119 1,135 4,7 4,12 -1,12 -6,0 -9,1044 -3,1145 0,6 -1,29 -3,53 -3,39 -1,43 22,48 15,3 31,7 36,8 6,2 11,0 13,-3 1,-4 32,-6 68,-5 z"
         inkscape:connector-curvature="0" />
    </g>
  </g>
</svg>
